HIERARCHY
ROOT Hips
{
	OFFSET 0.000000 0.000000 0.000000
	CHANNELS 6 Xposition Yposition Zposition Zrotation Yrotation Xrotation 
	JOINT LHipJoint
	{
		OFFSET 0.000000 0.000000 0.000000
		CHANNELS 3 Zrotation Yrotation Xrotation
		JOINT LeftUpLeg
		{
			OFFSET 1.363060 -1.794630 0.839290
			CHANNELS 3 Zrotation Yrotation Xrotation
			JOINT LeftLeg
			{
				OFFSET 2.448110 -6.726130 0.000000
				CHANNELS 3 Zrotation Yrotation Xrotation
				JOINT LeftFoot
				{
					OFFSET 2.562200 -7.039590 0.000000
					CHANNELS 3 Zrotation Yrotation Xrotation
					JOINT LeftToeBase
					{
						OFFSET 0.157640 -0.433110 2.322550
						CHANNELS 3 Zrotation Yrotation Xrotation
						End Site
						{
							OFFSET 0.000000 0.000000 0.000000
						}
					}
				}
			}
		}
	}
	JOINT RHipJoint
	{
		OFFSET 0.000000 0.000000 0.000000
		CHANNELS 3 Zrotation Yrotation Xrotation
		JOINT RightUpLeg
		{
			OFFSET -1.305520 -1.794630 0.839290
			CHANNELS 3 Zrotation Yrotation Xrotation
			JOINT RightLeg
			{
				OFFSET -2.542530 -6.985550 0.000000
				CHANNELS 3 Zrotation Yrotation Xrotation
				JOINT RightFoot
				{
					OFFSET -2.568260 -7.056230 0.000000
					CHANNELS 3 Zrotation Yrotation Xrotation
					JOINT RightToeBase
					{
						OFFSET -0.164730 -0.452590 2.363150
						CHANNELS 3 Zrotation Yrotation Xrotation
						End Site
						{
							OFFSET 0.000000 0.000000 0.000000
						}
					}
				}
			}
		}
	}
	JOINT LowerBack
	{
		OFFSET 0.000000 0.000000 0.000000
		CHANNELS 3 Zrotation Yrotation Xrotation
		JOINT Spine
		{
			OFFSET 0.028270 2.035590 -0.193380
			CHANNELS 3 Zrotation Yrotation Xrotation
			JOINT Spine1
			{
				OFFSET 0.056720 2.048850 -0.042750
				CHANNELS 3 Zrotation Yrotation Xrotation
				JOINT Neck
				{
					OFFSET 0.000000 0.000000 0.000000
					CHANNELS 3 Zrotation Yrotation Xrotation
					JOINT Neck1
					{
						OFFSET -0.054170 1.746240 0.172020
						CHANNELS 3 Zrotation Yrotation Xrotation
						JOINT Head
						{
							OFFSET 0.104070 1.761360 -0.123970
							CHANNELS 3 Zrotation Yrotation Xrotation
							End Site
							{
								OFFSET 0.000000 0.000000 0.000000
							}
						}
					}
				}
				JOINT LeftShoulder
				{
					OFFSET 0.000000 0.000000 0.000000
					CHANNELS 3 Zrotation Yrotation Xrotation
					JOINT LeftArm
					{
						OFFSET 3.362410 1.200890 -0.311210
						CHANNELS 3 Zrotation Yrotation Xrotation
						JOINT LeftForeArm
						{
							OFFSET 4.983000 -0.000000 -0.000000
							CHANNELS 3 Zrotation Yrotation Xrotation
							JOINT LeftHand
							{
								OFFSET 3.483560 -0.000000 -0.000000
								CHANNELS 3 Zrotation Yrotation Xrotation
								JOINT LeftFingerBase
								{
									OFFSET 0.000000 0.000000 0.000000
									CHANNELS 3 Zrotation Yrotation Xrotation
									JOINT LeftHandIndex1
									{
										OFFSET 0.715260 -0.000000 -0.000000
										CHANNELS 3 Zrotation Yrotation Xrotation
										End Site
										{
											OFFSET 0.000000 0.000000 0.000000
										}
									}
								}
								JOINT LThumb
								{
									OFFSET 0.000000 0.000000 0.000000
									CHANNELS 3 Zrotation Yrotation Xrotation
									End Site
									{
										OFFSET 0.000000 0.000000 0.000000
									}
								}
							}
						}
					}
				}
				JOINT RightShoulder
				{
					OFFSET 0.000000 0.000000 0.000000
					CHANNELS 3 Zrotation Yrotation Xrotation
					JOINT RightArm
					{
						OFFSET -3.136600 1.374050 -0.404650
						CHANNELS 3 Zrotation Yrotation Xrotation
						JOINT RightForeArm
						{
							OFFSET -5.241900 -0.000000 -0.000000
							CHANNELS 3 Zrotation Yrotation Xrotation
							JOINT RightHand
							{
								OFFSET -3.444170 -0.000000 -0.000000
								CHANNELS 3 Zrotation Yrotation Xrotation
								JOINT RightFingerBase
								{
									OFFSET 0.000000 0.000000 0.000000
									CHANNELS 3 Zrotation Yrotation Xrotation
									JOINT RightHandIndex1
									{
										OFFSET -0.622530 -0.000000 -0.000000
										CHANNELS 3 Zrotation Yrotation Xrotation
										End Site
										{
											OFFSET 0.000000 0.000000 0.000000
										}
									}
								}
								JOINT RThumb
								{
									OFFSET 0.000000 0.000000 0.000000
									CHANNELS 3 Zrotation Yrotation Xrotation
									End Site
									{
										OFFSET 0.000000 0.000000 0.000000
									}
								}
							}
						}
					}
				}
			}
		}
	}
}
MOTION
Frames: 7
Frame Time: 0.008333
10.400895 16.893286 1.086908 -169.776799 -89.047041 -151.753390 -9.266841 -0.941210 2.590821 -4.157631 -7.794359 -47.125822 -1.642354 -0.647631 20.340612 3.830211 14.020652 -19.222036 -2.433600 0.000001 -41.718400 7.434218 0.902633 2.541065 5.545751 8.953616 -46.484687 2.264029 0.404917 22.089986 -3.775724 -9.669391 -20.603041 1.822900 -0.000000 -52.267600 1.099361 -2.435441 -1.982395 -0.132034 -2.557010 -2.990584 -4.648104 -2.642237 1.880504 9.046272 -18.951608 -13.743657 -0.039421 0.129196 -1.936180 0.000000 0.000000 0.000000 4.581423 15.612416 2.036640 -58.861782 40.850520 30.246695 -1.784326 -56.750147 0.004429 5.605937 -0.085224 -0.002234 -0.189370 -0.022813 -0.000000 0.000000 0.000000 0.000000 0.000000 0.000000 0.000000 5.190524 -15.966487 3.349184 69.028216 -30.178325 2.623445 2.904266 36.478782 0.029336 -6.644076 11.283770 -0.681282 0.197996 -0.095294 0.000000 0.000000 0.000000 0.000000 0.000000 0.000000 0.000000 
10.397576 16.817888 1.090121 -158.837990 -88.981666 -161.575690 -8.912923 -0.858492 2.615073 -4.052446 -8.323815 -49.437871 -1.664078 -0.477551 22.596654 3.966972 13.990644 -20.535069 -2.766800 -0.000000 -41.559400 7.653352 1.162706 2.565523 5.237332 9.227887 -49.142784 2.193991 0.070648 24.963219 -3.831813 -9.478839 -21.624091 2.004000 -0.000000 -51.995100 1.165348 -2.416163 -1.899611 -0.099197 -2.529909 -2.994466 -4.531012 -2.618362 1.785186 8.964521 -19.091946 -13.871070 0.095524 0.145904 -2.000618 0.000000 0.000000 0.000000 4.794687 15.585127 2.126691 -59.341464 42.137390 29.293198 -1.738509 -57.908496 0.003633 5.671974 -0.144279 -0.005821 -0.192636 -0.012155 -0.000000 0.000000 0.000000 0.000000 0.000000 0.000000 0.000000 4.705763 -15.991290 3.470786 68.939736 -31.369192 3.314194 2.815094 37.787073 0.029021 -6.500502 11.352227 -0.670884 0.195556 -0.097972 0.000000 0.000000 0.000000 0.000000 0.000000 0.000000 0.000000 
10.393834 16.731094 1.093083 -147.448569 -89.097364 -171.816503 -8.554352 -0.824951 2.630558 -3.977326 -8.879125 -51.868571 -1.684957 -0.310276 25.034933 4.096175 13.878033 -21.916245 -3.113601 -0.000000 -41.415800 7.887919 1.369555 2.623151 4.879721 9.436605 -51.927101 2.125090 -0.308071 27.930364 -3.869222 -9.230589 -22.677869 2.171800 -0.000000 -51.719600 1.270560 -2.450485 -1.849242 -0.051179 -2.559114 -3.004168 -4.418086 -2.651617 1.689356 8.898640 -19.211317 -14.002899 0.219066 0.161702 -2.066903 0.000000 0.000000 0.000000 4.977102 15.544424 2.222796 -59.861745 43.354425 28.289929 -1.686107 -59.111674 0.002710 5.760248 -0.181177 -0.008407 -0.195862 -0.001144 -0.000000 0.000000 0.000000 0.000000 0.000000 0.000000 0.000000 4.282306 -16.018075 3.580261 68.839118 -32.530916 3.911921 2.718089 39.100996 0.028511 -6.424472 11.404770 -0.666290 0.193149 -0.100986 0.000000 0.000000 0.000000 0.000000 0.000000 0.000000 0.000000 
10.389185 16.632149 1.095843 -136.658065 -89.360051 178.580347 -8.262764 -0.854939 2.655421 -3.948323 -9.479456 -54.428167 -1.699597 -0.133197 27.634671 4.217839 13.703156 -23.332039 -3.460700 0.000001 -41.282700 8.070380 1.507853 2.707846 4.440076 9.577137 -54.841123 2.054781 -0.716477 30.982601 -3.887275 -8.919860 -23.747315 2.320500 -0.000001 -51.427700 1.318904 -2.534756 -1.849125 -0.011264 -2.638255 -3.023926 -4.307986 -2.735616 1.595071 8.854706 -19.300281 -14.137466 0.326763 0.176160 -2.133886 0.000000 0.000000 0.000000 5.126905 15.493368 2.323717 -60.425070 44.497283 27.222584 -1.629058 -60.325078 0.001697 5.874276 -0.203038 -0.010292 -0.199134 0.009902 -0.000000 0.000000 0.000000 0.000000 0.000000 0.000000 0.000000 3.943750 -16.039021 3.676444 68.726114 -33.664368 4.382000 2.616560 40.390293 0.027817 -6.413948 11.440601 -0.667294 0.190910 -0.104431 0.000000 0.000000 0.000000 0.000000 0.000000 0.000000 0.000000 
10.382848 16.520170 1.098377 -127.117589 -89.690196 170.279761 -8.053910 -0.919812 2.709826 -3.952532 -10.120212 -57.139664 -1.704487 0.068779 30.374735 4.333138 13.490437 -24.750691 -3.794800 -0.000001 -41.149201 8.187422 1.604236 2.818217 3.911611 9.674604 -57.889267 1.975972 -1.135367 34.116706 -3.887082 -8.547541 -24.816389 2.447400 0.000000 -51.096500 1.267866 -2.641401 -1.920719 0.006033 -2.739125 -3.057749 -4.201612 -2.841876 1.509826 8.837035 -19.362501 -14.275607 0.418274 0.189242 -2.201178 0.000000 0.000000 0.000000 5.266054 15.460716 2.428848 -61.050990 45.530825 26.095926 -1.569847 -61.481222 0.000641 6.027755 -0.226571 -0.012478 -0.202553 0.020878 -0.000000 0.000000 0.000000 0.000000 0.000000 0.000000 0.000000 3.696950 -16.049673 3.758900 68.599088 -34.747170 4.725456 2.514987 41.611709 0.026997 -6.470953 11.462253 -0.674400 0.189127 -0.108284 0.000000 0.000000 0.000000 0.000000 0.000000 0.000000 0.000000 
10.374351 16.394575 1.100749 60.793944 -89.968781 -16.334907 -7.908437 -0.987382 2.803171 -3.960634 -10.787836 -60.013326 -1.695336 0.302843 33.240613 4.441148 13.254225 -26.138943 -4.103699 -0.000000 -41.001900 8.259536 1.690472 2.956945 3.308548 9.755309 -61.063459 1.882629 -1.552736 37.321108 -3.872515 -8.129026 -25.874594 2.552801 -0.000000 -50.699600 1.134241 -2.747243 -2.075798 0.000884 -2.839785 -3.108613 -4.103148 -2.948450 1.435748 8.845591 -19.391706 -14.414574 0.491738 0.200657 -2.267433 0.000000 0.000000 0.000000 5.399843 15.448519 2.537787 -61.767268 46.450865 24.870344 -1.511127 -62.537135 -0.000423 6.220941 -0.269996 -0.015865 -0.206065 0.031864 -0.000000 0.000000 0.000000 0.000000 0.000000 0.000000 0.000000 3.543176 -16.035230 3.829225 68.472655 -35.765998 4.912813 2.418224 42.728663 0.026111 -6.577974 11.473930 -0.686106 0.187919 -0.112533 -0.000000 0.000000 0.000000 0.000000 0.000000 0.000000 0.000000 
10.363486 16.255221 1.103204 67.000432 -89.640943 -21.192494 -7.803390 -1.041227 2.935946 -3.943884 -11.472658 -63.043739 -1.666732 0.568425 36.221169 4.539860 13.003222 -27.465061 -4.378600 0.000000 -40.822900 8.310168 1.785168 3.126367 2.649353 9.831983 -64.345784 1.771206 -1.964117 40.579402 -3.849526 -7.689999 -26.918593 2.640000 -0.000000 -50.213300 0.955162 -2.842289 -2.315905 -0.019692 -2.931758 -3.177911 -4.017092 -3.047035 1.371055 8.877832 -19.374598 -14.549930 0.543897 0.209929 -2.330982 0.000000 0.000000 0.000000 5.516563 15.436656 2.650907 -62.605380 47.272914 23.472274 -1.455055 -63.477477 -0.001468 6.439835 -0.350422 -0.021753 -0.209467 0.043062 -0.000000 0.000000 0.000000 0.000000 0.000000 0.000000 0.000000 3.483264 -15.977468 3.890085 68.374464 -36.717881 4.888799 2.330238 43.718964 0.025198 -6.699236 11.478683 -0.699011 0.187165 -0.117211 -0.000000 0.000000 0.000000 0.000000 0.000000 0.000000 0.000000 
